{
  "accessors": [
    {
      "name": "Body_Cube.004-Mesh_0_positions",
      "componentType": 5126,
      "count": 2038,
      "min": [
        -0.640496015548706,
        -0.01934099942445755,
        -0.48584499955177307
      ],
      "max": [
        0.6406289935112,
        3.0811820030212402,
        0.5188170075416565
      ],
      "type": "VEC3",
      "bufferView": 0,
      "byteOffset": 0
    },
    {
      "name": "Body_Cube.004-Mesh_0_normals",
      "componentType": 5126,
      "count": 2038,
      "min": [
        -0.9967289566993713,
        -0.9991334676742554,
        -0.9982174634933472
      ],
      "max": [
        0.9967347979545593,
        0.9998937249183655,
        0.9959989786148071
      ],
      "type": "VEC3",
      "bufferView": 1,
      "byteOffset": 0
    },
    {
      "name": "Body_Cube.004-Mesh_0_indices",
      "componentType": 5123,
      "count": 3060,
      "min": [
        0
      ],
      "max": [
        2037
      ],
      "type": "SCALAR",
      "bufferView": 2,
      "byteOffset": 0
    },
    {
      "name": "Body_Cube.004-Mesh_1_positions",
      "componentType": 5126,
      "count": 894,
      "min": [
        -0.6122030019760132,
        0.9591450095176697,
        -0.281019002199173
      ],
      "max": [
        0.6074219942092896,
        1.9756280183792114,
        0.2712309956550598
      ],
      "type": "VEC3",
      "bufferView": 0,
      "byteOffset": 24456
    },
    {
      "name": "Body_Cube.004-Mesh_1_normals",
      "componentType": 5126,
      "count": 894,
      "min": [
        -0.9976717829704285,
        -0.8818206787109375,
        -0.9961838126182556
      ],
      "max": [
        0.9979644417762756,
        0.9306204915046692,
        0.9980590343475342
      ],
      "type": "VEC3",
      "bufferView": 1,
      "byteOffset": 24456
    },
    {
      "name": "Body_Cube.004-Mesh_1_indices",
      "componentType": 5123,
      "count": 1326,
      "min": [
        0
      ],
      "max": [
        893
      ],
      "type": "SCALAR",
      "bufferView": 2,
      "byteOffset": 6120
    },
    {
      "name": "Body_Cube.004-Mesh_2_positions",
      "componentType": 5126,
      "count": 1028,
      "min": [
        -0.557358980178833,
        0.4222880005836487,
        -0.2505069971084595
      ],
      "max": [
        0.5521979928016663,
        2.032021999359131,
        0.2953979969024658
      ],
      "type": "VEC3",
      "bufferView": 0,
      "byteOffset": 35184
    },
    {
      "name": "Body_Cube.004-Mesh_2_normals",
      "componentType": 5126,
      "count": 1028,
      "min": [
        -0.9933752417564392,
        -0.9966920614242554,
        -0.9984615445137024
      ],
      "max": [
        0.9932903051376343,
        0.9425167441368103,
        0.9995087385177612
      ],
      "type": "VEC3",
      "bufferView": 1,
      "byteOffset": 35184
    },
    {
      "name": "Body_Cube.004-Mesh_2_indices",
      "componentType": 5123,
      "count": 1524,
      "min": [
        0
      ],
      "max": [
        1027
      ],
      "type": "SCALAR",
      "bufferView": 2,
      "byteOffset": 8772
    },
    {
      "name": "Body_Cube.004-Mesh_3_positions",
      "componentType": 5126,
      "count": 612,
      "min": [
        -0.4043259918689728,
        0.14148299396038055,
        -0.26121601462364197
      ],
      "max": [
        0.4046800136566162,
        1.069432020187378,
        0.2525779902935028
      ],
      "type": "VEC3",
      "bufferView": 0,
      "byteOffset": 47520
    },
    {
      "name": "Body_Cube.004-Mesh_3_normals",
      "componentType": 5126,
      "count": 612,
      "min": [
        -0.9901636838912964,
        -0.9898539781570435,
        -0.9834001660346985
      ],
      "max": [
        0.9900901317596436,
        0.347686231136322,
        0.9982474446296692
      ],
      "type": "VEC3",
      "bufferView": 1,
      "byteOffset": 47520
    },
    {
      "name": "Body_Cube.004-Mesh_3_indices",
      "componentType": 5123,
      "count": 912,
      "min": [
        0
      ],
      "max": [
        611
      ],
      "type": "SCALAR",
      "bufferView": 2,
      "byteOffset": 11820
    },
    {
      "name": "Body_Cube.004-Mesh_4_positions",
      "componentType": 5126,
      "count": 168,
      "min": [
        -0.36625200510025024,
        2.440016984939575,
        0.39159101247787476
      ],
      "max": [
        0.37125399708747864,
        2.727839946746826,
        0.5110750198364258
      ],
      "type": "VEC3",
      "bufferView": 0,
      "byteOffset": 54864
    },
    {
      "name": "Body_Cube.004-Mesh_4_normals",
      "componentType": 5126,
      "count": 168,
      "min": [
        -0.9710515737533569,
        -0.9954928755760193,
        -0.9674246311187744
      ],
      "max": [
        0.9726885557174683,
        0.9956546425819397,
        0.9916192889213562
      ],
      "type": "VEC3",
      "bufferView": 1,
      "byteOffset": 54864
    },
    {
      "name": "Body_Cube.004-Mesh_4_indices",
      "componentType": 5123,
      "count": 960,
      "min": [
        0
      ],
      "max": [
        167
      ],
      "type": "SCALAR",
      "bufferView": 2,
      "byteOffset": 13644
    },
    {
      "name": "Body_Cube.004-Mesh_5_positions",
      "componentType": 5126,
      "count": 779,
      "min": [
        -0.5741310119628906,
        2.375214099884033,
        -0.5695610046386719
      ],
      "max": [
        0.5762119889259338,
        3.2180140018463135,
        0.583407998085022
      ],
      "type": "VEC3",
      "bufferView": 0,
      "byteOffset": 56880
    },
    {
      "name": "Body_Cube.004-Mesh_5_normals",
      "componentType": 5126,
      "count": 779,
      "min": [
        -0.9999902248382568,
        -0.9998921155929565,
        -0.9960722327232361
      ],
      "max": [
        0.999991774559021,
        0.989243745803833,
        0.9960722327232361
      ],
      "type": "VEC3",
      "bufferView": 1,
      "byteOffset": 56880
    },
    {
      "name": "Body_Cube.004-Mesh_5_indices",
      "componentType": 5123,
      "count": 1200,
      "min": [
        0
      ],
      "max": [
        778
      ],
      "type": "SCALAR",
      "bufferView": 2,
      "byteOffset": 15564
    }
  ],
  "asset": {
    "generator": "obj2gltf",
    "version": "2.0"
  },
  "buffers": [
    {
      "name": "BlueSoldier_Male",
      "byteLength": 150420,
      "uri": "data:application/octet-stream;base64,"
    }
  ],
  "bufferViews": [
    {
      "name": "bufferView_0",
      "buffer": 0,
      "byteLength": 66228,
      "byteOffset": 0,
      "byteStride": 12,
      "target": 34962
    },
    {
      "name": "bufferView_1",
      "buffer": 0,
      "byteLength": 66228,
      "byteOffset": 66228,
      "byteStride": 12,
      "target": 34962
    },
    {
      "name": "bufferView_2",
      "buffer": 0,
      "byteLength": 17964,
      "byteOffset": 132456,
      "target": 34963
    }
  ],
  "materials": [
    {
      "name": "Skin",
      "pbrMetallicRoughness": {
        "baseColorFactor": [
          0.010728,
          0.010728,
          0.010728,
          1
        ],
        "metallicFactor": 0,
        "roughnessFactor": 0.903921569
      },
      "emissiveFactor": [
        0,
        0,
        0
      ],
      "alphaMode": "OPAQUE",
      "doubleSided": false
    },
    {
      "name": "Main",
      "pbrMetallicRoughness": {
        "baseColorFactor": [
          0.018584,
          0.029836,
          0.055981,
          1
        ],
        "metallicFactor": 0,
        "roughnessFactor": 0.903921569
      },
      "emissiveFactor": [
        0,
        0,
        0
      ],
      "alphaMode": "OPAQUE",
      "doubleSided": false
    },
    {
      "name": "Black",
      "pbrMetallicRoughness": {
        "baseColorFactor": [
          0.016302,
          0.016302,
          0.016302,
          1
        ],
        "metallicFactor": 0,
        "roughnessFactor": 0.903921569
      },
      "emissiveFactor": [
        0,
        0,
        0
      ],
      "alphaMode": "OPAQUE",
      "doubleSided": false
    },
    {
      "name": "Grey",
      "pbrMetallicRoughness": {
        "baseColorFactor": [
          0.033621,
          0.033621,
          0.033621,
          1
        ],
        "metallicFactor": 0,
        "roughnessFactor": 0.903921569
      },
      "emissiveFactor": [
        0,
        0,
        0
      ],
      "alphaMode": "OPAQUE",
      "doubleSided": false
    },
    {
      "name": "Face",
      "pbrMetallicRoughness": {
        "baseColorFactor": [
          0.8,
          0.8,
          0.75231,
          1
        ],
        "metallicFactor": 0,
        "roughnessFactor": 0.903921569
      },
      "emissiveFactor": [
        0,
        0,
        0
      ],
      "alphaMode": "OPAQUE",
      "doubleSided": false
    },
    {
      "name": "Helmet",
      "pbrMetallicRoughness": {
        "baseColorFactor": [
          0.018584,
          0.029836,
          0.055981,
          1
        ],
        "metallicFactor": 0,
        "roughnessFactor": 0.903921569
      },
      "emissiveFactor": [
        0,
        0,
        0
      ],
      "alphaMode": "OPAQUE",
      "doubleSided": false
    }
  ],
  "meshes": [
    {
      "name": "Body_Cube.004-Mesh",
      "primitives": [
        {
          "attributes": {
            "POSITION": 0,
            "NORMAL": 1
          },
          "indices": 2,
          "material": 0,
          "mode": 4
        },
        {
          "attributes": {
            "POSITION": 3,
            "NORMAL": 4
          },
          "indices": 5,
          "material": 1,
          "mode": 4
        },
        {
          "attributes": {
            "POSITION": 6,
            "NORMAL": 7
          },
          "indices": 8,
          "material": 2,
          "mode": 4
        },
        {
          "attributes": {
            "POSITION": 9,
            "NORMAL": 10
          },
          "indices": 11,
          "material": 3,
          "mode": 4
        },
        {
          "attributes": {
            "POSITION": 12,
            "NORMAL": 13
          },
          "indices": 14,
          "material": 4,
          "mode": 4
        },
        {
          "attributes": {
            "POSITION": 15,
            "NORMAL": 16
          },
          "indices": 17,
          "material": 5,
          "mode": 4
        }
      ]
    }
  ],
  "nodes": [
    {
      "name": "Body_Cube.004",
      "mesh": 0
    }
  ],
  "scene": 0,
  "scenes": [
    {
      "nodes": [
        0
      ]
    }
  ]
}
