{
  "accessors": [
    {
      "name": "Body_Cube.004-Mesh_0_positions",
      "componentType": 5126,
      "count": 3576,
      "min": [
        -0.7864239811897278,
        -0.019274000078439713,
        -0.5033400058746338
      ],
      "max": [
        0.7870150208473206,
        3.0865209102630615,
        0.5040130019187927
      ],
      "type": "VEC3",
      "bufferView": 0,
      "byteOffset": 0
    },
    {
      "name": "Body_Cube.004-Mesh_0_normals",
      "componentType": 5126,
      "count": 3576,
      "min": [
        -0.9986624121665955,
        -0.999129056930542,
        -0.9984411597251892
      ],
      "max": [
        0.9979435205459595,
        0.9998663663864136,
        0.9995341897010803
      ],
      "type": "VEC3",
      "bufferView": 1,
      "byteOffset": 0
    },
    {
      "name": "Body_Cube.004-Mesh_0_indices",
      "componentType": 5123,
      "count": 5328,
      "min": [
        0
      ],
      "max": [
        3575
      ],
      "type": "SCALAR",
      "bufferView": 2,
      "byteOffset": 0
    },
    {
      "name": "Body_Cube.004-Mesh_1_positions",
      "componentType": 5126,
      "count": 552,
      "min": [
        -0.4327700138092041,
        0.5568320155143738,
        -0.2800830006599426
      ],
      "max": [
        0.4336870014667511,
        1.2702059745788574,
        0.28426799178123474
      ],
      "type": "VEC3",
      "bufferView": 0,
      "byteOffset": 42912
    },
    {
      "name": "Body_Cube.004-Mesh_1_normals",
      "componentType": 5126,
      "count": 552,
      "min": [
        -0.9905123710632324,
        -0.9194106459617615,
        -0.9956851601600647
      ],
      "max": [
        0.9906026721000671,
        0.9803438186645508,
        0.9914849996566772
      ],
      "type": "VEC3",
      "bufferView": 1,
      "byteOffset": 42912
    },
    {
      "name": "Body_Cube.004-Mesh_1_indices",
      "componentType": 5123,
      "count": 828,
      "min": [
        0
      ],
      "max": [
        551
      ],
      "type": "SCALAR",
      "bufferView": 2,
      "byteOffset": 10656
    },
    {
      "name": "Body_Cube.004-Mesh_2_positions",
      "componentType": 5126,
      "count": 88,
      "min": [
        -0.1868710070848465,
        2.235805034637451,
        0.4704810082912445
      ],
      "max": [
        0.19191999733448029,
        2.3537309169769287,
        0.5259919762611389
      ],
      "type": "VEC3",
      "bufferView": 0,
      "byteOffset": 49536
    },
    {
      "name": "Body_Cube.004-Mesh_2_normals",
      "componentType": 5126,
      "count": 88,
      "min": [
        -0.9949601292610168,
        -0.6878945827484131,
        -0.95597904920578
      ],
      "max": [
        0.9956461787223816,
        0.8210063576698303,
        0.9480049014091492
      ],
      "type": "VEC3",
      "bufferView": 1,
      "byteOffset": 49536
    },
    {
      "name": "Body_Cube.004-Mesh_2_indices",
      "componentType": 5123,
      "count": 120,
      "min": [
        0
      ],
      "max": [
        87
      ],
      "type": "SCALAR",
      "bufferView": 2,
      "byteOffset": 12312
    },
    {
      "name": "Body_Cube.004-Mesh_3_positions",
      "componentType": 5126,
      "count": 195,
      "min": [
        -0.3600429892539978,
        2.2165629863739014,
        0.37475401163101196
      ],
      "max": [
        0.3703779876232147,
        2.752959966659546,
        0.5240319967269897
      ],
      "type": "VEC3",
      "bufferView": 0,
      "byteOffset": 50592
    },
    {
      "name": "Body_Cube.004-Mesh_3_normals",
      "componentType": 5126,
      "count": 195,
      "min": [
        -0.9623186588287354,
        -0.9979903697967529,
        -0.9664182662963867
      ],
      "max": [
        0.9780098795890808,
        0.9935535788536072,
        0.9917340874671936
      ],
      "type": "VEC3",
      "bufferView": 1,
      "byteOffset": 50592
    },
    {
      "name": "Body_Cube.004-Mesh_3_indices",
      "componentType": 5123,
      "count": 1110,
      "min": [
        0
      ],
      "max": [
        194
      ],
      "type": "SCALAR",
      "bufferView": 2,
      "byteOffset": 12552
    }
  ],
  "asset": {
    "generator": "obj2gltf",
    "version": "2.0"
  },
  "buffers": [
    {
      "name": "Goblin_Male",
      "byteLength": 120636,
      "uri": "data:application/octet-stream;base64,"
    }
  ],
  "bufferViews": [
    {
      "name": "bufferView_0",
      "buffer": 0,
      "byteLength": 52932,
      "byteOffset": 0,
      "byteStride": 12,
      "target": 34962
    },
    {
      "name": "bufferView_1",
      "buffer": 0,
      "byteLength": 52932,
      "byteOffset": 52932,
      "byteStride": 12,
      "target": 34962
    },
    {
      "name": "bufferView_2",
      "buffer": 0,
      "byteLength": 14772,
      "byteOffset": 105864,
      "target": 34963
    }
  ],
  "materials": [
    {
      "name": "Skin",
      "pbrMetallicRoughness": {
        "baseColorFactor": [
          0.079907,
          0.088549,
          0.019111,
          1
        ],
        "metallicFactor": 0,
        "roughnessFactor": 0.903921569
      },
      "emissiveFactor": [
        0,
        0,
        0
      ],
      "alphaMode": "OPAQUE",
      "doubleSided": false
    },
    {
      "name": "Pants",
      "pbrMetallicRoughness": {
        "baseColorFactor": [
          0.088549,
          0.062666,
          0.024831,
          1
        ],
        "metallicFactor": 0,
        "roughnessFactor": 0.903921569
      },
      "emissiveFactor": [
        0,
        0,
        0
      ],
      "alphaMode": "OPAQUE",
      "doubleSided": false
    },
    {
      "name": "Teeth",
      "pbrMetallicRoughness": {
        "baseColorFactor": [
          0.207835,
          0.204811,
          0.102357,
          1
        ],
        "metallicFactor": 0,
        "roughnessFactor": 0.903921569
      },
      "emissiveFactor": [
        0,
        0,
        0
      ],
      "alphaMode": "OPAQUE",
      "doubleSided": false
    },
    {
      "name": "Face",
      "pbrMetallicRoughness": {
        "baseColorFactor": [
          0.016302,
          0.016302,
          0.015544,
          1
        ],
        "metallicFactor": 0,
        "roughnessFactor": 0.903921569
      },
      "emissiveFactor": [
        0,
        0,
        0
      ],
      "alphaMode": "OPAQUE",
      "doubleSided": false
    }
  ],
  "meshes": [
    {
      "name": "Body_Cube.004-Mesh",
      "primitives": [
        {
          "attributes": {
            "POSITION": 0,
            "NORMAL": 1
          },
          "indices": 2,
          "material": 0,
          "mode": 4
        },
        {
          "attributes": {
            "POSITION": 3,
            "NORMAL": 4
          },
          "indices": 5,
          "material": 1,
          "mode": 4
        },
        {
          "attributes": {
            "POSITION": 6,
            "NORMAL": 7
          },
          "indices": 8,
          "material": 2,
          "mode": 4
        },
        {
          "attributes": {
            "POSITION": 9,
            "NORMAL": 10
          },
          "indices": 11,
          "material": 3,
          "mode": 4
        }
      ]
    }
  ],
  "nodes": [
    {
      "name": "Body_Cube.004",
      "mesh": 0
    }
  ],
  "scene": 0,
  "scenes": [
    {
      "nodes": [
        0
      ]
    }
  ]
}
