{
  "accessors": [
    {
      "name": "Body_Cube.004-Mesh_0_positions",
      "componentType": 5126,
      "count": 2618,
      "min": [
        -0.6425250172615051,
        -0.019247999414801598,
        -0.508167028427124
      ],
      "max": [
        0.6498280167579651,
        3.0883560180664062,
        0.49995601177215576
      ],
      "type": "VEC3",
      "bufferView": 0,
      "byteOffset": 0
    },
    {
      "name": "Body_Cube.004-Mesh_0_normals",
      "componentType": 5126,
      "count": 2618,
      "min": [
        -0.9991939067840576,
        -0.999129056930542,
        -0.9984926581382751
      ],
      "max": [
        0.9978431463241577,
        0.9998549818992615,
        0.9992474317550659
      ],
      "type": "VEC3",
      "bufferView": 1,
      "byteOffset": 0
    },
    {
      "name": "Body_Cube.004-Mesh_0_indices",
      "componentType": 5123,
      "count": 3894,
      "min": [
        0
      ],
      "max": [
        2617
      ],
      "type": "SCALAR",
      "bufferView": 2,
      "byteOffset": 0
    },
    {
      "name": "Body_Cube.004-Mesh_1_positions",
      "componentType": 5126,
      "count": 1094,
      "min": [
        -0.6563990116119385,
        0.6099839806556702,
        -0.3050850033760071
      ],
      "max": [
        0.6539930105209351,
        1.9827419519424438,
        0.2853130102157593
      ],
      "type": "VEC3",
      "bufferView": 0,
      "byteOffset": 31416
    },
    {
      "name": "Body_Cube.004-Mesh_1_normals",
      "componentType": 5126,
      "count": 1094,
      "min": [
        -0.9918186664581299,
        -0.9221706986427307,
        -0.998350203037262
      ],
      "max": [
        0.9909132122993469,
        0.9988047480583191,
        0.9970742464065552
      ],
      "type": "VEC3",
      "bufferView": 1,
      "byteOffset": 31416
    },
    {
      "name": "Body_Cube.004-Mesh_1_indices",
      "componentType": 5123,
      "count": 1638,
      "min": [
        0
      ],
      "max": [
        1093
      ],
      "type": "SCALAR",
      "bufferView": 2,
      "byteOffset": 7788
    },
    {
      "name": "Body_Cube.004-Mesh_2_positions",
      "componentType": 5126,
      "count": 384,
      "min": [
        -0.5322539806365967,
        1.0308870077133179,
        -0.5523959994316101
      ],
      "max": [
        0.5331829786300659,
        3.008625030517578,
        0.5120319724082947
      ],
      "type": "VEC3",
      "bufferView": 0,
      "byteOffset": 44544
    },
    {
      "name": "Body_Cube.004-Mesh_2_normals",
      "componentType": 5126,
      "count": 384,
      "min": [
        -0.9802721738815308,
        -0.9747527241706848,
        -0.9957172870635986
      ],
      "max": [
        0.9804835915565491,
        0.9797778129577637,
        0.9964250922203064
      ],
      "type": "VEC3",
      "bufferView": 1,
      "byteOffset": 44544
    },
    {
      "name": "Body_Cube.004-Mesh_2_indices",
      "componentType": 5123,
      "count": 576,
      "min": [
        0
      ],
      "max": [
        383
      ],
      "type": "SCALAR",
      "bufferView": 2,
      "byteOffset": 11064
    },
    {
      "name": "Body_Cube.004-Mesh_3_positions",
      "componentType": 5126,
      "count": 448,
      "min": [
        -0.6709200143814087,
        0.5612099766731262,
        -0.3208659887313843
      ],
      "max": [
        0.6685699820518494,
        1.5748059749603271,
        0.3133170008659363
      ],
      "type": "VEC3",
      "bufferView": 0,
      "byteOffset": 49152
    },
    {
      "name": "Body_Cube.004-Mesh_3_normals",
      "componentType": 5126,
      "count": 448,
      "min": [
        -0.9373766183853149,
        -0.9939080476760864,
        -0.9761067032814026
      ],
      "max": [
        0.9368997812271118,
        0.7137050032615662,
        0.9533324837684631
      ],
      "type": "VEC3",
      "bufferView": 1,
      "byteOffset": 49152
    },
    {
      "name": "Body_Cube.004-Mesh_3_indices",
      "componentType": 5123,
      "count": 672,
      "min": [
        0
      ],
      "max": [
        447
      ],
      "type": "SCALAR",
      "bufferView": 2,
      "byteOffset": 12216
    },
    {
      "name": "Body_Cube.004-Mesh_4_positions",
      "componentType": 5126,
      "count": 336,
      "min": [
        -0.8644459843635559,
        2.623944044113159,
        -0.8790410161018372
      ],
      "max": [
        0.8654710054397583,
        4.037149906158447,
        0.8492379784584045
      ],
      "type": "VEC3",
      "bufferView": 0,
      "byteOffset": 54528
    },
    {
      "name": "Body_Cube.004-Mesh_4_normals",
      "componentType": 5126,
      "count": 336,
      "min": [
        -0.9276343584060669,
        -0.9689055681228638,
        -0.9813955426216125
      ],
      "max": [
        0.9768030047416687,
        0.9644297957420349,
        0.9720001220703125
      ],
      "type": "VEC3",
      "bufferView": 1,
      "byteOffset": 54528
    },
    {
      "name": "Body_Cube.004-Mesh_4_indices",
      "componentType": 5123,
      "count": 522,
      "min": [
        0
      ],
      "max": [
        335
      ],
      "type": "SCALAR",
      "bufferView": 2,
      "byteOffset": 13560
    },
    {
      "name": "Body_Cube.004-Mesh_5_positions",
      "componentType": 5126,
      "count": 4176,
      "min": [
        -0.48491600155830383,
        2.0184829235076904,
        0.23284099996089935
      ],
      "max": [
        0.48843899369239807,
        2.736358880996704,
        0.5655739903450012
      ],
      "type": "VEC3",
      "bufferView": 0,
      "byteOffset": 58560
    },
    {
      "name": "Body_Cube.004-Mesh_5_normals",
      "componentType": 5126,
      "count": 4176,
      "min": [
        -0.9981856942176819,
        -0.9984019994735718,
        -0.999285101890564
      ],
      "max": [
        0.9977898597717285,
        0.9950830340385437,
        0.9985084533691406
      ],
      "type": "VEC3",
      "bufferView": 1,
      "byteOffset": 58560
    },
    {
      "name": "Body_Cube.004-Mesh_5_indices",
      "componentType": 5123,
      "count": 11652,
      "min": [
        0
      ],
      "max": [
        4175
      ],
      "type": "SCALAR",
      "bufferView": 2,
      "byteOffset": 14604
    },
    {
      "name": "Body_Cube.004-Mesh_6_positions",
      "componentType": 5126,
      "count": 230,
      "min": [
        -0.2817380130290985,
        2.450061082839966,
        0.39879798889160156
      ],
      "max": [
        0.2862139940261841,
        2.6266300678253174,
        0.48340699076652527
      ],
      "type": "VEC3",
      "bufferView": 0,
      "byteOffset": 108672
    },
    {
      "name": "Body_Cube.004-Mesh_6_normals",
      "componentType": 5126,
      "count": 230,
      "min": [
        -0.9972856044769287,
        -0.9952172636985779,
        -0.9991583824157715
      ],
      "max": [
        0.9967456459999084,
        0.834402859210968,
        0.9947744607925415
      ],
      "type": "VEC3",
      "bufferView": 1,
      "byteOffset": 108672
    },
    {
      "name": "Body_Cube.004-Mesh_6_indices",
      "componentType": 5123,
      "count": 480,
      "min": [
        0
      ],
      "max": [
        229
      ],
      "type": "SCALAR",
      "bufferView": 2,
      "byteOffset": 37908
    }
  ],
  "asset": {
    "generator": "obj2gltf",
    "version": "2.0"
  },
  "buffers": [
    {
      "name": "Wizard",
      "byteLength": 261732,
      "uri": "data:application/octet-stream;base64,"
    }
  ],
  "bufferViews": [
    {
      "name": "bufferView_0",
      "buffer": 0,
      "byteLength": 111432,
      "byteOffset": 0,
      "byteStride": 12,
      "target": 34962
    },
    {
      "name": "bufferView_1",
      "buffer": 0,
      "byteLength": 111432,
      "byteOffset": 111432,
      "byteStride": 12,
      "target": 34962
    },
    {
      "name": "bufferView_2",
      "buffer": 0,
      "byteLength": 38868,
      "byteOffset": 222864,
      "target": 34963
    }
  ],
  "materials": [
    {
      "name": "Skin",
      "pbrMetallicRoughness": {
        "baseColorFactor": [
          0.010728,
          0.010728,
          0.010728,
          1
        ],
        "metallicFactor": 0,
        "roughnessFactor": 0.903921569
      },
      "emissiveFactor": [
        0,
        0,
        0
      ],
      "alphaMode": "OPAQUE",
      "doubleSided": false
    },
    {
      "name": "Clothes",
      "pbrMetallicRoughness": {
        "baseColorFactor": [
          0.016054,
          0.04367,
          0.088549,
          1
        ],
        "metallicFactor": 0,
        "roughnessFactor": 0.903921569
      },
      "emissiveFactor": [
        0,
        0,
        0
      ],
      "alphaMode": "OPAQUE",
      "doubleSided": false
    },
    {
      "name": "Belt",
      "pbrMetallicRoughness": {
        "baseColorFactor": [
          0.035562,
          0.013618,
          0.003753,
          1
        ],
        "metallicFactor": 0,
        "roughnessFactor": 0.903921569
      },
      "emissiveFactor": [
        0,
        0,
        0
      ],
      "alphaMode": "OPAQUE",
      "doubleSided": false
    },
    {
      "name": "Gold",
      "pbrMetallicRoughness": {
        "baseColorFactor": [
          0.230633,
          0.12722,
          0.028499,
          1
        ],
        "metallicFactor": 0,
        "roughnessFactor": 0.903921569
      },
      "emissiveFactor": [
        0,
        0,
        0
      ],
      "alphaMode": "OPAQUE",
      "doubleSided": false
    },
    {
      "name": "Hat",
      "pbrMetallicRoughness": {
        "baseColorFactor": [
          0.005238,
          0.015283,
          0.03362,
          1
        ],
        "metallicFactor": 0,
        "roughnessFactor": 0.903921569
      },
      "emissiveFactor": [
        0,
        0,
        0
      ],
      "alphaMode": "OPAQUE",
      "doubleSided": false
    },
    {
      "name": "Hair",
      "pbrMetallicRoughness": {
        "baseColorFactor": [
          0.510614,
          0.510614,
          0.510614,
          1
        ],
        "metallicFactor": 0,
        "roughnessFactor": 0.903921569
      },
      "emissiveFactor": [
        0,
        0,
        0
      ],
      "alphaMode": "OPAQUE",
      "doubleSided": false
    },
    {
      "name": "Face",
      "pbrMetallicRoughness": {
        "baseColorFactor": [
          0.8,
          0.8,
          0.75231,
          1
        ],
        "metallicFactor": 0,
        "roughnessFactor": 0.903921569
      },
      "emissiveFactor": [
        0,
        0,
        0
      ],
      "alphaMode": "OPAQUE",
      "doubleSided": false
    }
  ],
  "meshes": [
    {
      "name": "Body_Cube.004-Mesh",
      "primitives": [
        {
          "attributes": {
            "POSITION": 0,
            "NORMAL": 1
          },
          "indices": 2,
          "material": 0,
          "mode": 4
        },
        {
          "attributes": {
            "POSITION": 3,
            "NORMAL": 4
          },
          "indices": 5,
          "material": 1,
          "mode": 4
        },
        {
          "attributes": {
            "POSITION": 6,
            "NORMAL": 7
          },
          "indices": 8,
          "material": 2,
          "mode": 4
        },
        {
          "attributes": {
            "POSITION": 9,
            "NORMAL": 10
          },
          "indices": 11,
          "material": 3,
          "mode": 4
        },
        {
          "attributes": {
            "POSITION": 12,
            "NORMAL": 13
          },
          "indices": 14,
          "material": 4,
          "mode": 4
        },
        {
          "attributes": {
            "POSITION": 15,
            "NORMAL": 16
          },
          "indices": 17,
          "material": 5,
          "mode": 4
        },
        {
          "attributes": {
            "POSITION": 18,
            "NORMAL": 19
          },
          "indices": 20,
          "material": 6,
          "mode": 4
        }
      ]
    }
  ],
  "nodes": [
    {
      "name": "Body_Cube.004",
      "mesh": 0
    }
  ],
  "scene": 0,
  "scenes": [
    {
      "nodes": [
        0
      ]
    }
  ]
}
